HIERARCHY
ROOT Hips
{
  OFFSET -5.58815 102.545 -76.5957
  CHANNELS 6 Xposition Yposition Zposition Zrotation Xrotation Yrotation
  JOINT RightUpLeg
  {
    OFFSET -8.9458 -8.66707 0.101652
    CHANNELS 3 Zrotation Xrotation Yrotation
    JOINT RightLeg
    {
      OFFSET 0 -44.4227 1.3727
      CHANNELS 3 Zrotation Xrotation Yrotation
      JOINT RightFoot
      {
        OFFSET 0.253549 -42.0924 -1.46059
        CHANNELS 3 Zrotation Xrotation Yrotation
        JOINT RightToes
        {
          OFFSET 0.04 -4.41509 8.4991
          CHANNELS 3 Zrotation Xrotation Yrotation
          End Site
          {
            OFFSET -0.08 -0.137448 9.77979
          }
        }
      }
    }
  }
  JOINT Spine
  {
    OFFSET 0 11.8905 0
    CHANNELS 3 Zrotation Xrotation Yrotation
    JOINT Spine1
    {
      OFFSET 0 25.6574 0.127663
      CHANNELS 3 Zrotation Xrotation Yrotation
      JOINT HEad
      {
        OFFSET 0 8.73416 0.011341
        CHANNELS 3 Zrotation Xrotation Yrotation
        End Site
        {
          OFFSET -0.29 12.7742 2.51395
        }
      }
      JOINT LeftShoulder1
      {
        OFFSET 8.99 -0.362252 -0.22
        CHANNELS 3 Zrotation Xrotation Yrotation
        JOINT LeftArm
        {
          OFFSET 10.2827 -0.00338 0.322123
          CHANNELS 3 Zrotation Xrotation Yrotation
          JOINT LeftForeArm
          {
            OFFSET 32.7669 0.099144 -1.42434
            CHANNELS 3 Zrotation Xrotation Yrotation
            JOINT LeftHand
            {
              OFFSET 27.5643 0.085362 1.02216
              CHANNELS 3 Zrotation Xrotation Yrotation
              End Site
              {
                OFFSET 16.7443 -0.6 1.50291
              }
            }
          }
        }
      }
      JOINT RightShoulder
      {
        OFFSET -8.99 -0.362252 -0.22
        CHANNELS 3 Zrotation Xrotation Yrotation
        JOINT RightArm
        {
          OFFSET -10.2827 -0.00338 0.322123
          CHANNELS 3 Zrotation Xrotation Yrotation
          JOINT RightForeArm
          {
            OFFSET -32.8971 0.099144 -1.42434
            CHANNELS 3 Zrotation Xrotation Yrotation
            JOINT RightHand
            {
              OFFSET -27.4921 0.085362 1.02216
              CHANNELS 3 Zrotation Xrotation Yrotation
              End Site
              {
                OFFSET -16.6312 -0.6 1.50291
              }
            }
          }
        }
      }
    }
  }
  JOINT LeftUpLeg
  {
    OFFSET 8.9458 -8.66707 0.101652
    CHANNELS 3 Zrotation Xrotation Yrotation
    JOINT LeftLeg
    {
      OFFSET 0 -44.4227 1.3727
      CHANNELS 3 Zrotation Xrotation Yrotation
      JOINT LeftFoot
      {
        OFFSET -0.253549 -42.0924 -1.46059
        CHANNELS 3 Zrotation Xrotation Yrotation
        JOINT LeftToes
        {
          OFFSET -0.04 -4.41509 8.4991
          CHANNELS 3 Zrotation Xrotation Yrotation
          End Site
          {
            OFFSET 0.08 -0.047448 9.77979
          }
        }
      }
    }
  }
}
MOTION
Frames:	8
Frame Time:	0.0166667
-17.0865 101.103 105.312 -2.25608 -1.164 -0.974992 4.66306 8.10872 0.0461502 11.0299 31.9558 -15.4083 0.154545 -20.9035 -0.20217 -9.78686 -1.24383 -4.33279 2.24417 1.66009 0.844225 4.15632 -6.91099 0.35558 -3.55376 2.15408 2.09489 -6.7711e-016 1.59028e-015 9.93923e-017 -77.0529 -27.376 0.0555604 -28.8203 8.10045 8.13042 0.368473 9.90896 -0.00117925 -5.06734 0.503026 8.99621 87.9633 -23.879 9.07254 21.6105 14.004 12.4711 -0.369625 9.91382 0.00119886 -0.6496 -22.9041 2.4345 -6.16975 21.3103 21.3126 -12.312 -2.77912 0.214663 -2.25978e-012 3.30301e-012 -6.24025e-012 
-16.9572 101.457 107.066 -1.8801 -1.65271 -1.31572 3.10389 7.52767 0.44157 12.5512 34.6016 -16.6686 0.890462 -17.9534 -0.103294 -3.58707 4.87065 -1.57611 2.07214 1.64209 0.691353 3.57007 -6.49142 0.311629 -3.79698 2.27419 2.46344 -1.33558e-015 0 4.96962e-017 -77.3154 -28.6755 -0.962415 -27.9154 7.89589 9.90067 0.368473 9.90896 -0.00117925 -5.73374 0.448708 9.61627 88.462 -24.6715 8.02369 21.4305 13.908 11.9288 -0.369625 9.91382 0.00119886 -1.23083 -21.1269 2.42337 -6.08249 21.1321 21.2874 -12.1419 -3.51957 0.133292 -2.26336e-012 3.30142e-012 -6.24343e-012 
-16.7772 101.835 108.784 -1.45361 -2.11221 -1.82527 1.26282 6.47869 0.576994 14.2053 37.7004 -17.8155 1.81535 -14.4775 -0.0382538 1.28676 11.3574 0.483395 1.86174 1.68 0.584168 3.15786 -6.27214 0.289405 -4.43974 2.79058 3.05086 -1.98785e-016 0 -9.93923e-017 -77.7489 -30.0159 -1.90469 -27.1344 7.7401 11.3875 0.368473 9.90896 -0.00117925 -6.72448 0.355206 10.3012 89.0586 -25.2822 7.08147 21.3054 13.778 11.2111 -0.369625 9.91382 0.00119886 -1.84259 -19.1503 2.22116 -6.05699 20.4777 21.6397 -12.0921 -4.19439 0.0610247 -2.25859e-012 3.29983e-012 -6.23707e-012 
-16.5594 102.154 110.454 -1.03849 -2.56027 -2.35093 -0.742312 4.97113 0.0212127 15.5228 41.384 -18.3322 3.19867 -10.3227 -0.040613 4.58978 15.418 1.5539 1.64444 1.80015 0.525259 2.92142 -6.18585 0.27885 -5.42149 3.47743 3.70008 -1.2424e-016 0 -7.95139e-016 -78.3535 -30.9261 -2.80116 -26.64 7.65716 12.3056 0.368473 9.90896 -0.00117925 -7.84899 0.225231 10.7377 89.6375 -25.6125 6.41349 21.2348 13.6054 10.2945 -0.369625 9.91382 0.00119886 -2.34757 -17.223 2.22408 -6.17197 19.8723 21.8752 -12.2333 -5.05927 -0.0329373 -2.25382e-012 3.3046e-012 -6.24343e-012 
-16.3308 102.405 112.045 -0.621172 -2.93976 -2.8979 -2.66779 3.08219 -1.06094 16.2537 45.499 -18.0839 4.51019 -6.47214 -0.0814703 6.01702 17.8238 1.79228 1.39682 1.93869 0.502396 2.77558 -6.16279 0.275988 -6.51223 4.14578 4.42812 -8.94531e-016 0 -3.97569e-016 -79.0002 -31.3709 -3.62188 -26.4395 7.64263 12.6382 0.368473 9.90896 -0.00117925 -8.96787 0.0879813 11.0249 90.1001 -25.6498 5.97884 21.269 13.4048 9.28262 -0.369625 9.91382 0.00119886 -2.80622 -15.4549 2.23152 -6.40758 19.3252 22.2003 -12.4758 -5.99907 -0.137779 -2.25621e-012 3.29983e-012 -6.23707e-012 
-16.1223 102.54 113.507 -0.183631 -3.20743 -3.42298 -4.18921 0.874619 -2.98182 15.4133 50.1375 -15.7236 5.26246 -3.87896 -0.164874 4.33834 18.0898 1.1472 1.07855 2.03279 0.511479 2.63861 -6.06861 0.272601 -7.42333 4.51746 5.22797 4.96962e-016 0 -0 -79.5575 -31.0748 -4.34762 -26.6425 7.69097 12.2115 0.368473 9.90896 -0.00117925 -9.92623 -0.033742 11.1664 90.3181 -25.2643 5.84803 21.4849 13.1795 8.21306 -0.369625 9.91382 0.00119886 -3.22403 -14.0486 2.18029 -6.81291 19.0361 22.6782 -12.8087 -7.00883 -0.258596 -2.25581e-012 3.30142e-012 -6.23389e-012 
-15.9356 102.604 114.882 0.213631 -3.34042 -3.91753 -5.52625 -1.58572 -4.76052 13.7219 54.6224 -13.4769 5.56666 -2.47966 -0.233975 1.17882 17.1816 -0.0148914 0.770996 2.10585 0.530718 2.50264 -6.02972 0.27147 -8.20739 4.63833 6.00801 2.48481e-016 3.18055e-015 -0 -79.9945 -30.2922 -4.95364 -27.0842 7.821 11.2078 0.368473 9.90896 -0.00117925 -10.5842 -0.118974 11.1363 90.2279 -24.7068 5.84196 21.8124 12.963 7.25814 -0.369625 9.91382 0.00119886 -3.59125 -12.9738 2.06209 -7.27544 18.9511 23.2396 -13.0664 -8.01365 -0.378634 -2.25899e-012 3.29664e-012 -6.23707e-012 
-15.7881 102.627 116.206 0.500497 -3.24099 -4.38241 -6.53049 -4.3157 -5.32079 13.2997 58.3246 -15.241 5.29745 -2.65608 -0.215504 -2.36679 16.0635 -1.32812 0.571979 2.16464 0.533754 2.33005 -6.27147 0.276602 -8.82167 4.48371 6.69378 -3.97569e-016 1.59028e-015 3.97569e-016 -80.1671 -29.1726 -5.27263 -27.6781 8.04732 9.69334 0.368473 9.90896 -0.00117925 -10.6621 -0.126213 10.9368 89.6251 -24.1937 5.74604 22.2505 12.7853 6.57858 -0.369625 9.91382 0.00119886 -3.88542 -12.336 1.85197 -7.69724 19.0894 23.8329 -12.9746 -8.89767 -0.474337 -2.25462e-012 3.29664e-012 -6.23707e-012 
